<svg width="36" height="36" viewBox="0 0 36 36" fill="none" xmlns="http://www.w3.org/2000/svg">
<path d="M0 18C0 8.05888 8.05888 0 18 0C27.9411 0 36 8.05888 36 18C36 27.9411 27.9411 36 18 36C8.05888 36 0 27.9411 0 18Z" fill="#F96468"/>
<path d="M16.3935 21.0057L15.2663 10.4858C15.1241 9.15798 16.1646 8 17.5 8C18.8354 8 19.8759 9.15798 19.7337 10.4858L18.6065 21.0057C18.5459 21.5712 18.0687 22 17.5 22C16.9313 22 16.4541 21.5712 16.3935 21.0057Z" fill="#323232"/>
<circle cx="17.5" cy="26" r="2" fill="#323232"/>
</svg>
