<svg width="36" height="36" viewBox="0 0 36 36" fill="none" xmlns="http://www.w3.org/2000/svg">
<path d="M0 18C0 8.05888 8.05888 0 18 0C27.9411 0 36 8.05888 36 18C36 27.9411 27.9411 36 18 36C8.05888 36 0 27.9411 0 18Z" fill="#4BAAFB"/>
<path d="M8.81238 25.4453L17.8124 28.7656C17.8311 28.7656 17.8499 28.7852 17.8686 28.7852C17.9061 28.8047 17.9624 28.8047 17.9999 28.8047C18.0374 28.8047 18.0561 28.8047 18.0936 28.8047C18.0936 28.8047 18.0936 28.8047 18.1124 28.8047C18.1311 28.8047 18.1686 28.7852 18.1874 28.7852L27.1874 25.4648C27.4124 25.3867 27.5624 25.1523 27.5624 24.918V18.3359L29.4374 17.6523C29.5874 17.5938 29.7186 17.457 29.7749 17.3008C29.8311 17.1445 29.8124 16.9492 29.7186 16.793L27.4686 12.8867L27.4499 12.8672C27.4499 12.8477 27.4311 12.8477 27.4311 12.8281C27.4311 12.8086 27.4124 12.8086 27.4124 12.7891C27.4124 12.7891 27.4124 12.7891 27.4124 12.7695C27.3936 12.75 27.3936 12.75 27.3749 12.7305L27.3561 12.7109L27.3374 12.6914H27.3186L27.2999 12.6719C27.2811 12.6523 27.2624 12.6523 27.2436 12.6523C27.2249 12.6523 27.2249 12.6328 27.2061 12.6328L18.2061 9.3125C18.2061 9.3125 18.2061 9.3125 18.1874 9.3125H18.1686H18.1499C18.1311 9.3125 18.1311 9.3125 18.1124 9.3125C18.0936 9.3125 18.0936 9.3125 18.0749 9.3125C18.0561 9.3125 18.0561 9.3125 18.0374 9.3125C18.0186 9.3125 17.9999 9.3125 17.9624 9.3125C17.9436 9.3125 17.9436 9.3125 17.9249 9.3125C17.8874 9.3125 17.8499 9.33203 17.8311 9.33203L8.83113 12.6523C8.79363 12.6719 8.77488 12.6719 8.73738 12.6914L8.71863 12.7109C8.69988 12.7305 8.68113 12.7305 8.66238 12.75L8.64363 12.7695C8.62488 12.7891 8.60613 12.7891 8.60613 12.8086L8.58738 12.8281C8.56863 12.8477 8.56863 12.8672 8.54988 12.8672C8.54988 12.8672 8.54988 12.8867 8.53113 12.8867L6.28113 16.793C6.14988 17.0078 6.16863 17.2812 6.31863 17.457C6.43113 17.5938 6.58113 17.6719 6.74988 17.6719C6.80613 17.6719 6.88113 17.6523 6.93738 17.6328L8.43738 17.0859V24.8984C8.43738 25.1523 8.58738 25.3672 8.81238 25.4453ZM28.4061 16.7734L20.4936 19.7031L18.8249 16.8125L26.7374 13.8828L28.4061 16.7734ZM18.5624 10.6797L25.3124 13.1797L18.5624 15.6797V10.6797ZM18.5624 18.6094L19.7624 20.6992C19.8749 20.8945 20.0624 20.9922 20.2499 20.9922C20.3061 20.9922 20.3811 20.9727 20.4374 20.9531L26.4374 18.7461V24.4883L18.5624 27.3984V18.6094ZM9.56238 14L17.4374 16.9102V27.3789L9.56238 24.4688V14Z" fill="#323232"/>
</svg>
