<svg width="36" height="36" viewBox="0 0 36 36" fill="none" xmlns="http://www.w3.org/2000/svg">
<path d="M0 18C0 8.05888 8.05888 0 18 0C27.9411 0 36 8.05888 36 18C36 27.9411 27.9411 36 18 36C8.05888 36 0 27.9411 0 18Z" fill="#48B95C"/>
<path d="M27.7804 10.0716C27.6339 9.92514 27.4599 9.85168 27.2596 9.85168H15.4075C15.2069 9.85168 15.0332 9.92514 14.8867 10.0716C14.7402 10.2182 14.6668 10.3919 14.6668 10.5925V12.8148H12.8149C12.6065 12.8148 12.3807 12.8649 12.1377 12.9652C11.8946 13.0657 11.6998 13.1889 11.5533 13.3355L9.2615 15.6273C9.16125 15.7276 9.07453 15.8432 9.00108 15.9745C8.92782 16.1054 8.87378 16.2234 8.83904 16.3274C8.80438 16.4317 8.77916 16.5742 8.76388 16.7557C8.74856 16.9371 8.73875 17.0702 8.7349 17.1552C8.73121 17.24 8.73121 17.3866 8.7349 17.595C8.73879 17.8035 8.74073 17.9384 8.74073 18.0002V21.7039C8.54019 21.7039 8.3666 21.7771 8.21993 21.9239C8.07334 22.0702 8 22.244 8 22.4446C8 22.5602 8.01532 22.6626 8.04621 22.7512C8.07715 22.84 8.12916 22.9113 8.20262 22.9654C8.27587 23.0195 8.33956 23.0638 8.39351 23.0986C8.44763 23.1332 8.53828 23.1563 8.66557 23.1679C8.79287 23.1796 8.87962 23.1874 8.92596 23.1912C8.97229 23.1949 9.0706 23.1949 9.22104 23.1912C9.37165 23.1874 9.4584 23.1854 9.48159 23.1854H10.2223C10.2223 24.0031 10.5117 24.7015 11.0903 25.2802C11.669 25.8589 12.3673 26.1483 13.1853 26.1483C14.0031 26.1483 14.7015 25.8589 15.2801 25.2802C15.8589 24.7015 16.1481 24.0031 16.1481 23.1854H20.5927C20.5927 24.0031 20.8821 24.7015 21.4607 25.2802C22.0393 25.8589 22.7376 26.1483 23.5556 26.1483C24.3737 26.1483 25.0716 25.8589 25.6505 25.2802C26.2292 24.7015 26.5185 24.0031 26.5185 23.1854C26.5415 23.1854 26.6284 23.1874 26.7788 23.1912C26.9293 23.1949 27.0277 23.1949 27.074 23.1912C27.1203 23.1874 27.2073 23.1796 27.3345 23.1679C27.4618 23.1563 27.5523 23.1333 27.6064 23.0986C27.6606 23.0639 27.7241 23.0195 27.7973 22.9654C27.8707 22.9113 27.9229 22.84 27.9537 22.7512C27.9849 22.6625 28 22.5602 28 22.4446V10.5926C28.0002 10.392 27.9269 10.2185 27.7804 10.0716ZM14.2267 24.2271C13.9336 24.5202 13.5863 24.6671 13.1851 24.6671C12.7838 24.6671 12.4366 24.5203 12.1434 24.2271C11.8501 23.934 11.7036 23.5867 11.7036 23.1855C11.7036 22.7843 11.8503 22.4367 12.1434 22.1436C12.4365 21.8506 12.7838 21.7038 13.1851 21.7038C13.5863 21.7038 13.9336 21.8505 14.2267 22.1436C14.52 22.4367 14.6667 22.7843 14.6667 23.1855C14.6667 23.5867 14.52 23.934 14.2267 24.2271ZM14.6667 17.2593H10.2221V16.9122C10.2221 16.8119 10.2568 16.727 10.3262 16.6575L12.5832 14.4006C12.6526 14.3311 12.7376 14.2965 12.8379 14.2965H14.6667V17.2593ZM24.5972 24.2271C24.3041 24.5202 23.9568 24.6671 23.5556 24.6671C23.1543 24.6671 22.8068 24.5203 22.5137 24.2271C22.2206 23.934 22.0739 23.5867 22.0739 23.1855C22.0739 22.7843 22.2206 22.4367 22.5137 22.1436C22.8068 21.8506 23.1543 21.7038 23.5556 21.7038C23.9568 21.7038 24.3041 21.8505 24.5972 22.1436C24.8903 22.4369 25.0371 22.7843 25.0371 23.1855C25.0371 23.5867 24.8906 23.934 24.5972 24.2271Z" fill="#323232"/>
</svg>
