<svg width="475" height="92" viewBox="0 0 475 92" fill="none" xmlns="http://www.w3.org/2000/svg">
<path d="M146.068 12.2818L2.05664 1V74H468.887V11.6182L277.515 24.8909L239.821 33.5182L202.127 42.1455L146.068 12.2818Z" fill="url(#paint0_linear_284_5112)" fill-opacity="0.2"/>
<path d="M2.13006 0.00269914C1.57927 -0.0378513 1.09989 0.375783 1.05934 0.926577C1.01879 1.47737 1.43242 1.95675 1.98322 1.9973L2.13006 0.00269914ZM146.068 11.6024L146.533 10.7168L146.349 10.6204L146.142 10.6051L146.068 11.6024ZM463.553 11.6024C463.553 14.5479 465.941 16.9357 468.887 16.9357C471.832 16.9357 474.22 14.5479 474.22 11.6024C474.22 8.65689 471.832 6.26908 468.887 6.26908C465.941 6.26908 463.553 8.65689 463.553 11.6024ZM202.127 41L201.662 41.8856L201.981 42.0527L202.333 41.9785L202.127 41ZM277.515 25.0964L277.445 24.0989L277.376 24.1037L277.309 24.1179L277.515 25.0964ZM1.98322 1.9973L145.995 12.5997L146.142 10.6051L2.13006 0.00269914L1.98322 1.9973ZM145.604 12.488L201.662 41.8856L202.591 40.1144L146.533 10.7168L145.604 12.488ZM202.333 41.9785L277.722 26.0749L277.309 24.1179L201.92 40.0215L202.333 41.9785ZM277.586 26.0939L468.957 12.5999L468.816 10.6049L277.445 24.0989L277.586 26.0939Z" fill="white"/>
<defs>
<linearGradient id="paint0_linear_284_5112" x1="235.472" y1="1" x2="235.472" y2="74" gradientUnits="userSpaceOnUse">
<stop stop-color="white"/>
<stop offset="1" stop-color="white" stop-opacity="0"/>
</linearGradient>
</defs>
</svg>
