<svg width="474" height="212" viewBox="0 0 474 212" fill="none" xmlns="http://www.w3.org/2000/svg">
<path d="M146.068 30.8273L2.05664 1V194H468.887V29.0727L277.515 64.1636L239.821 86.9727L202.127 109.782L146.068 30.8273Z" fill="url(#paint0_linear_284_5179)" fill-opacity="0.2"/>
<path d="M2.2475 0.0183833C1.70537 -0.0870274 1.18043 0.267005 1.07502 0.809137C0.969613 1.35127 1.32365 1.87621 1.86578 1.98162L2.2475 0.0183833ZM146.062 29L146.879 28.4237L146.647 28.0951L146.253 28.0184L146.062 29ZM463.167 29C463.167 31.9455 465.554 34.3333 468.5 34.3333C471.446 34.3333 473.833 31.9455 473.833 29C473.833 26.0545 471.446 23.6667 468.5 23.6667C465.554 23.6667 463.167 26.0545 463.167 29ZM202.118 108.5L201.3 109.076L201.834 109.834L202.63 109.359L202.118 108.5ZM277.503 63.5L277.325 62.5159L277.146 62.5482L276.99 62.6413L277.503 63.5ZM1.86578 1.98162L145.871 29.9816L146.253 28.0184L2.2475 0.0183833L1.86578 1.98162ZM145.245 29.5763L201.3 109.076L202.935 107.924L146.879 28.4237L145.245 29.5763ZM202.63 109.359L278.015 64.3587L276.99 62.6413L201.605 107.641L202.63 109.359ZM277.681 64.4841L468.678 29.9841L468.322 28.0159L277.325 62.5159L277.681 64.4841Z" fill="white"/>
<defs>
<linearGradient id="paint0_linear_284_5179" x1="235.472" y1="1" x2="235.472" y2="194" gradientUnits="userSpaceOnUse">
<stop stop-color="white"/>
<stop offset="1" stop-color="white" stop-opacity="0"/>
</linearGradient>
</defs>
</svg>
