<svg width="420" height="212" viewBox="0 0 420 212" fill="none" xmlns="http://www.w3.org/2000/svg">
<path d="M129.41 30.8273L2.05664 1V194H414.887V29.0727L245.652 64.1636L212.318 86.9727L178.984 109.782L129.41 30.8273Z" fill="url(#paint0_linear_334_1816)" fill-opacity="0.2"/>
<path d="M2.2714 0.0233339C1.73201 -0.0952767 1.19859 0.245839 1.07997 0.785236C0.961364 1.32463 1.30248 1.85806 1.84188 1.97667L2.2714 0.0233339ZM129.39 29L130.239 28.4709L130.016 28.1137L129.605 28.0233L129.39 29ZM409.167 29C409.167 31.9455 411.555 34.3333 414.5 34.3333C417.446 34.3333 419.833 31.9455 419.833 29C419.833 26.0545 417.446 23.6667 414.5 23.6667C411.555 23.6667 409.167 26.0545 409.167 29ZM178.957 108.5L178.108 109.029L178.657 109.909L179.516 109.329L178.957 108.5ZM245.615 63.5L245.414 62.5202L245.22 62.56L245.055 62.6712L245.615 63.5ZM1.84188 1.97667L129.176 29.9767L129.605 28.0233L2.2714 0.0233339L1.84188 1.97667ZM128.542 29.5291L178.108 109.029L179.805 107.971L130.239 28.4709L128.542 29.5291ZM179.516 109.329L246.174 64.3288L245.055 62.6712L178.397 107.671L179.516 109.329ZM245.815 64.4798L414.7 29.9798L414.3 28.0202L245.414 62.5202L245.815 64.4798Z" fill="white"/>
<defs>
<linearGradient id="paint0_linear_334_1816" x1="208.472" y1="1" x2="208.472" y2="194" gradientUnits="userSpaceOnUse">
<stop stop-color="white"/>
<stop offset="1" stop-color="white" stop-opacity="0"/>
</linearGradient>
</defs>
</svg>
