<svg width="26" height="35" viewBox="0 0 26 35" fill="none" xmlns="http://www.w3.org/2000/svg">
<path d="M15.3281 21.4688H0V16.7109H15.2109C16.4141 16.7109 17.3828 16.4688 18.1172 15.9844C18.8672 15.4844 19.4062 14.7969 19.7344 13.9219C20.0781 13.0312 20.25 12 20.25 10.8281C20.25 9.78125 20.0781 8.80469 19.7344 7.89844C19.4062 6.97656 18.875 6.23438 18.1406 5.67188C17.4062 5.09375 16.4609 4.80469 15.3047 4.80469H9.70312V34.125H4.05469V0H15.3281C17.5625 0 19.4688 0.460938 21.0469 1.38281C22.6406 2.30469 23.8594 3.57812 24.7031 5.20312C25.5469 6.82812 25.9688 8.6875 25.9688 10.7812C25.9688 13.0312 25.5391 14.9531 24.6797 16.5469C23.8203 18.1406 22.5938 19.3594 21 20.2031C19.4219 21.0469 17.5312 21.4688 15.3281 21.4688ZM15.8438 23.9062V28.6875H0V23.9062H15.8438Z" fill="white"/>
</svg>
