<svg width="474" height="43" viewBox="0 0 474 43" fill="none" xmlns="http://www.w3.org/2000/svg">
<path d="M1.13006 0.00269914C0.57927 -0.0378513 0.0998902 0.375783 0.0593398 0.926577C0.0187893 1.47737 0.432423 1.95675 0.983217 1.9973L1.13006 0.00269914ZM145.068 11.6024L145.533 10.7168L145.349 10.6204L145.142 10.6051L145.068 11.6024ZM462.553 11.6024C462.553 14.5479 464.941 16.9357 467.887 16.9357C470.832 16.9357 473.22 14.5479 473.22 11.6024C473.22 8.65689 470.832 6.26908 467.887 6.26908C464.941 6.26908 462.553 8.65689 462.553 11.6024ZM201.127 41L200.662 41.8856L200.981 42.0527L201.333 41.9785L201.127 41ZM276.515 25.0964L276.445 24.0989L276.376 24.1037L276.309 24.1179L276.515 25.0964ZM0.983217 1.9973L144.995 12.5997L145.142 10.6051L1.13006 0.00269914L0.983217 1.9973ZM144.604 12.488L200.662 41.8856L201.591 40.1144L145.533 10.7168L144.604 12.488ZM201.333 41.9785L276.722 26.0749L276.309 24.1179L200.92 40.0215L201.333 41.9785ZM276.586 26.0939L467.957 12.5999L467.816 10.6049L276.445 24.0989L276.586 26.0939Z" fill="white"/>
</svg>
